External Loads File
version=1
nRows=77
nColumns=13
Range=5.000000e-03-10 seconds
endheader
time 	forceRightX 	forceRightY 	forceRightZ 	pointRightX 	pointRightY 	pointRightZ 	forceLeftX 	forceLeftY 	forceLeftZ 	pointLeftX 	pointLeftY 	pointLeftZ 		
5.005000 -149.236784 -53.412160 -0.000000 0.336581 0.507195 -0.118549 174.527060 224.592704 -0.000000 0.222721 0.166153 -0.360179
5.010000 -151.746899 -22.335536 -0.000000 0.343964 0.502105 -0.118096 162.674334 180.137198 -0.000000 0.214567 0.170748 -0.360097
5.015000 -157.383803 12.750113 -0.000000 0.350805 0.496221 -0.117584 150.309794 140.372307 -0.000000 0.206636 0.176091 -0.359861
5.020000 -166.573699 52.514599 -0.000000 0.357459 0.489200 -0.116593 138.290229 105.771754 -0.000000 0.198983 0.181759 -0.359706
5.025000 -179.432758 97.223980 -0.000000 0.363556 0.481360 -0.115826 127.104432 76.771546 -0.000000 0.191543 0.187859 -0.359458
5.030000 -195.678215 147.127457 -0.000000 0.369379 0.472842 -0.114997 117.256974 53.319077 -0.000000 0.184254 0.194240 -0.359297
5.035000 -214.622075 202.075870 -0.000000 0.374868 0.463726 -0.114366 108.996007 35.167912 -0.000000 0.177270 0.201416 -0.359130
5.040000 -235.467134 261.244913 -0.000000 0.380103 0.454310 -0.113952 102.330546 22.020164 -0.000000 0.170784 0.209292 -0.359083
5.045000 -257.385478 323.345028 -0.000000 0.384866 0.444613 -0.113567 97.159715 13.470353 -0.000000 0.164669 0.217558 -0.358800
5.050000 -279.188961 387.140287 -0.000000 0.389362 0.434519 -0.113462 93.333279 8.937176 -0.000000 0.159023 0.226176 -0.358712
5.055000 -299.551252 451.486355 -0.000000 0.394026 0.424185 -0.113550 90.671633 7.787225 -0.000000 0.153772 0.235103 -0.358758
5.060000 -318.015426 514.934474 -0.000000 0.397900 0.413346 -0.113383 89.005108 9.478228 -0.000000 0.148976 0.244420 -0.358714
5.065000 -333.962149 576.598709 -0.000000 0.401624 0.402390 -0.113326 88.194381 13.307407 -0.000000 0.144824 0.254003 -0.358625
5.070000 -346.820622 635.927043 -0.000000 0.404962 0.391316 -0.113282 88.085549 18.547505 -0.000000 0.141295 0.263883 -0.358643
5.075000 -355.758384 692.739381 -0.000000 0.407816 0.380090 -0.113280 88.499723 24.461253 -0.000000 0.138336 0.274038 -0.358458
5.080000 -360.026712 746.883432 -0.000000 0.410134 0.368737 -0.113271 89.251696 30.382252 -0.000000 0.135950 0.284436 -0.358435
5.085000 -359.036709 798.134262 -0.000000 0.411874 0.357280 -0.113197 90.169504 35.731889 -0.000000 0.134229 0.295041 -0.358395
5.090000 -351.954380 846.388753 -0.000000 0.413003 0.345755 -0.113011 91.099820 39.961364 -0.000000 0.133193 0.305964 -0.358511
5.095000 -340.610541 890.547658 -0.000000 0.413438 0.334551 -0.112723 91.761169 42.839988 -0.000000 0.132456 0.316894 -0.358351
5.100000 -322.525495 931.427299 -0.000000 0.413316 0.322850 -0.112340 92.089282 43.726806 -0.000000 0.132498 0.327940 -0.358332
5.105000 -300.650909 967.946334 -0.000000 0.412677 0.311373 -0.112115 91.782870 42.625608 -0.000000 0.133007 0.339070 -0.358374
5.110000 -273.620035 1000.641210 -0.000000 0.411942 0.299807 -0.111815 90.762097 39.206957 -0.000000 0.134193 0.350650 -0.358398
5.115000 -245.026943 1028.487246 -0.000000 0.410476 0.288153 -0.111615 88.767533 33.705429 -0.000000 0.135991 0.361751 -0.358293
5.120000 -217.898465 1050.784721 -0.000000 0.408298 0.277704 -0.111507 85.662513 26.357133 -0.000000 0.138422 0.372835 -0.358255
5.125000 -190.375523 1067.822719 -0.000000 0.405755 0.267745 -0.111607 81.525375 17.055164 -0.000000 0.141338 0.383885 -0.358249
5.130000 -160.167021 1079.634592 -0.000000 0.402634 0.257558 -0.111751 76.408377 5.788091 -0.000000 0.144787 0.394787 -0.358036
5.135000 -129.524624 1085.484012 -0.000000 0.398905 0.247731 -0.111648 70.300404 -6.975667 -0.000000 0.148711 0.405484 -0.357816
5.140000 -98.867960 1085.155380 -0.000000 0.394584 0.238446 -0.111567 63.248214 -20.766973 -0.000000 0.153146 0.416032 -0.357514
5.145000 -68.491339 1078.589835 -0.000000 0.389836 0.229472 -0.111597 55.306930 -34.990248 -0.000000 0.158091 0.426267 -0.357321
5.150000 -38.171846 1065.900634 -0.000000 0.384525 0.220815 -0.111472 46.530645 -48.968589 -0.000000 0.163736 0.436089 -0.356869
5.155000 -9.982732 1047.290994 -0.000000 0.378787 0.212841 -0.111358 37.108038 -61.865573 -0.000000 0.169758 0.445510 -0.358748
5.160000 16.718368 1023.243987 -0.000000 0.372479 0.205099 -0.111314 27.143018 -72.970531 -0.000000 0.175956 0.454565 -0.357883
5.165000 39.932412 994.350890 -0.000000 0.365786 0.198004 -0.111240 16.927055 -81.549487 -0.000000 0.182236 0.463034 -0.357272
5.170000 63.987435 961.027352 -0.000000 0.358656 0.191323 -0.111129 6.239958 -87.109644 -0.000000 0.190132 0.470666 -0.357704
5.175000 84.196268 924.080264 -0.000000 0.351080 0.185332 -0.110965 -4.427851 -89.211199 -0.000000 0.197682 0.477707 -0.357738
5.180000 103.175775 883.916965 -0.000000 0.343164 0.179803 -0.110789 -15.232511 -87.782382 -0.000000 0.205755 0.484176 -0.357900
5.185000 120.185785 841.140598 -0.000000 0.334770 0.175154 -0.110586 -26.034491 -83.064285 -0.000000 0.213906 0.490180 -0.357816
5.190000 136.228545 796.118187 -0.000000 0.326125 0.170832 -0.110349 -36.867115 -75.562845 -0.000000 0.222517 0.495477 -0.357707
5.195000 151.007464 749.350722 -0.000000 0.317155 0.166984 -0.110007 -47.629224 -65.966033 -0.000000 0.231365 0.500001 -0.357704
5.200000 164.386546 701.343166 -0.000000 0.307913 0.163857 -0.109632 -58.207116 -54.982235 -0.000000 0.240367 0.503944 -0.357430
5.205000 176.200397 652.596125 -0.000000 0.298393 0.161397 -0.109232 -68.447629 -43.266345 -0.000000 0.249525 0.505802 -0.357575
5.210000 187.106292 603.279038 -0.000000 0.288796 0.159621 -0.109013 -78.224927 -31.270666 -0.000000 0.258798 0.509435 -0.357635
5.215000 196.334368 553.842611 -0.000000 0.278970 0.158542 -0.108709 -87.328460 -19.444523 -0.000000 0.268057 0.511113 -0.357842
5.220000 203.949986 504.461567 -0.000000 0.269106 0.158323 -0.108514 -95.641903 -7.973454 -0.000000 0.277311 0.512006 -0.357561
5.225000 209.817026 455.359170 -0.000000 0.259223 0.158854 -0.108310 -103.079527 3.109799 -0.000000 0.286436 0.512234 -0.357237
5.230000 213.751759 406.829222 -0.000000 0.249388 0.160038 -0.108175 -109.626237 13.899026 -0.000000 0.295333 0.511709 -0.357247
5.235000 215.836362 359.112436 -0.000000 0.239716 0.161982 -0.107978 -115.388429 24.678565 -0.000000 0.304100 0.510195 -0.357413
5.240000 215.926699 312.662994 -0.000000 0.230260 0.164626 -0.107922 -120.632854 35.816141 -0.000000 0.312672 0.508052 -0.358192
5.245000 213.949655 268.041729 -0.000000 0.221037 0.167959 -0.107852 -125.749956 47.819115 -0.000000 0.320821 0.505102 -0.358368
5.250000 210.204595 225.637627 -0.000000 0.212119 0.172119 -0.107850 -131.132601 61.467214 -0.000000 0.328661 0.501280 -0.358690
5.255000 204.951670 185.856239 -0.000000 0.203552 0.176780 -0.107845 -137.148446 77.666344 -0.000000 0.336213 0.496122 -0.358759
5.260000 198.265983 149.301448 -0.000000 0.195274 0.181906 -0.107863 -144.205456 97.210114 -0.000000 0.343411 0.490665 -0.359210
5.265000 190.540996 116.246217 -0.000000 0.187301 0.187442 -0.107871 -152.575299 120.963830 -0.000000 0.350102 0.484500 -0.359606
5.270000 182.266193 86.697356 -0.000000 0.179692 0.193712 -0.107933 -162.327557 149.735823 -0.000000 0.356283 0.477487 -0.360078
5.275000 173.767834 60.773532 -0.000000 0.172438 0.200494 -0.108025 -173.557871 183.878220 -0.000000 0.362216 0.470292 -0.360511
5.280000 165.498313 37.973898 -0.000000 0.165531 0.207900 -0.108075 -185.594585 223.933212 -0.000000 0.367845 0.461609 -0.360973
5.285000 157.557212 18.498866 -0.000000 0.158911 0.215845 -0.108105 -198.259570 269.307176 -0.000000 0.373191 0.452641 -0.361353
5.290000 150.107940 2.188332 -0.000000 0.152758 0.224215 -0.108305 -210.861314 319.258080 -0.000000 0.378208 0.443136 -0.361582
5.295000 143.216792 -11.151025 -0.000000 0.147098 0.232983 -0.108532 -222.511110 372.639807 -0.000000 0.383264 0.433514 -0.361791
5.300000 136.836368 -21.885114 -0.000000 0.141985 0.241941 -0.108679 -231.747035 428.275369 -0.000000 0.387968 0.422792 -0.362001
5.305000 130.918080 -29.851286 -0.000000 0.137326 0.251430 -0.108853 -238.741714 483.971472 -0.000000 0.392201 0.412382 -0.362265
5.310000 125.358444 -35.264463 -0.000000 0.133210 0.261161 -0.109088 -243.119215 538.093093 -0.000000 0.396559 0.402274 -0.362165
5.315000 119.928836 -38.738260 -0.000000 0.129816 0.271236 -0.109257 -243.051344 589.947222 -0.000000 0.400259 0.391060 -0.362360
5.320000 114.663700 -40.115570 -0.000000 0.126878 0.281473 -0.109529 -240.550731 637.591115 -0.000000 0.403533 0.380095 -0.362533
5.325000 109.438903 -39.859929 -0.000000 0.124583 0.291961 -0.109727 -235.103686 680.671285 -0.000000 0.406397 0.368958 -0.362697
5.330000 104.220986 -38.111789 -0.000000 0.122836 0.302606 -0.110005 -228.013790 718.593184 -0.000000 0.408700 0.357965 -0.362608
5.335000 98.856514 -35.246307 -0.000000 0.121699 0.313521 -0.110178 -219.184180 751.697906 -0.000000 0.410460 0.346952 -0.362555
5.340000 93.266312 -31.380652 -0.000000 0.120498 0.324368 -0.110910 -210.123482 780.200398 -0.000000 0.411742 0.336013 -0.362536
5.345000 87.346699 -26.794885 -0.000000 0.120822 0.335277 -0.110892 -200.711049 805.031772 -0.000000 0.412580 0.324954 -0.362483
5.350000 81.148622 -21.582870 -0.000000 0.121554 0.346002 -0.111216 -192.114765 826.802332 -0.000000 0.412687 0.314018 -0.362732
5.355000 74.739326 -16.177430 -0.000000 0.123238 0.357109 -0.111076 -182.561691 846.641480 -0.000000 0.412601 0.303198 -0.362654
5.360000 68.290225 -10.808544 -0.000000 0.125175 0.368014 -0.111903 -173.267892 864.657258 -0.000000 0.411962 0.292444 -0.362937
5.365000 61.855408 -5.946948 -0.000000 0.127683 0.378836 -0.112382 -163.946039 880.963762 -0.000000 0.411126 0.281916 -0.362552
5.370000 55.395262 -2.048159 -0.000000 0.130845 0.389039 -0.112773 -154.787791 895.279950 -0.000000 0.409487 0.271621 -0.362548
5.375000 48.783299 0.275487 -0.000000 0.134575 0.399629 -0.113246 -142.768182 907.700052 -0.000000 0.407247 0.261618 -0.362550
5.380000 41.845856 0.732611 -0.000000 0.138848 0.410064 -0.113699 -128.734492 917.581270 -0.000000 0.404374 0.251853 -0.362737
5.385000 34.396955 -0.878418 -0.000000 0.143622 0.420122 -0.114161 -114.674671 924.246978 -0.000000 0.401054 0.242873 -0.362640
